:SAMPLES-PER-SECOND 30
:FULLY-SPECIFIED
:DEGREES
426
root  -2.14796 40.0111 15.1172 -175.141 1.72046 -179.756
RightUpLeg  -15.7476 0.755216 -5.38149
RightLeg  12.2791 2.99731 -0.72271
RightFoot  1.19015 -0.56839 5.24029
RightToes  -5.8209e-011 0 -3.6325e-017
Spine  28.0129 0.577509 4.8231
Spine1  19.565 2.52148 -1.29857
HEad  15.0617 -11.387 0.384156
LeftShoulder1  7.50924 -17.0241 -30.5207
LeftArm  9.71152 -33.526 -66.1122
LeftForeArm  -5.3248 -4.72223 -13.5086
LeftHand  -0.246645 0.021 5.37786
RightShoulder  7.95787 16.5413 33.7121
RightArm  -1.70416 41.075 48.3061
RightForeArm  5.46371 5.09878 11.93
RightHand  -0.24729 -0.0210522 -5.37781
LeftUpLeg  -13.962 10.8285 6.30929
LeftLeg  9.82389 -0.788687 -3.34263
LeftFoot  1.07884 0.484603 -4.51332
LeftToes  -7.45818e-011 -3.37383e-011 1.08613e-011
427
root  -2.34951 39.9887 15.1659 -175.021 2.77901 -179.551
RightUpLeg  -16.6311 2.15682 -5.92997
RightLeg  13.0741 3.81404 -0.242417
RightFoot  1.65929 -0.755183 6.72438
RightToes  -5.8209e-011 0 -3.6325e-017
Spine  28.3592 0.712249 4.5648
Spine1  19.3483 2.7771 -1.66
HEad  14.807 -10.6616 -0.150087
LeftShoulder1  7.47019 -17.0325 -30.3126
LeftArm  9.13401 -33.9595 -66.1588
LeftForeArm  -3.35063 -4.26602 -13.3177
LeftHand  -0.246645 0.021 5.37786
RightShoulder  7.99069 16.5284 33.9006
RightArm  -2.39108 41.4933 48.7395
RightForeArm  5.08912 4.44641 11.8042
RightHand  -0.24729 -0.0210522 -5.37781
LeftUpLeg  -14.4164 11.1631 6.18222
LeftLeg  10.7163 -0.0134921 -3.08005
LeftFoot  0.575537 0.444077 -4.28818
LeftToes  -7.45818e-011 -3.37383e-011 1.08613e-011
428
root  -2.4832 39.9694 15.1948 -174.951 3.49437 -179.552
RightUpLeg  -17.3698 4.05106 -6.82882
RightLeg  13.9463 4.19551 0.171584
RightFoot  1.4682 -0.861136 7.7495
RightToes  -5.8209e-011 0 -3.6325e-017
Spine  28.6892 0.767837 4.18366
Spine1  19.131 2.85688 -1.89697
HEad  14.382 -9.9909 -0.614066
LeftShoulder1  7.4488 -17.0574 -30.1619
LeftArm  8.15333 -34.2506 -66.1821
LeftForeArm  -2.19113 -3.55131 -13.0878
LeftHand  -0.246645 0.021 5.37786
RightShoulder  8.02163 16.5221 34.0665
RightArm  -2.92719 41.7566 49.1455
RightForeArm  4.84914 3.83753 11.6432
RightHand  -0.24729 -0.0210522 -5.37781
LeftUpLeg  -14.6695 11.2293 6.01253
LeftLeg  11.2264 0.598346 -2.96211
LeftFoot  0.311416 0.411185 -4.04876
LeftToes  -7.45818e-011 -3.37383e-011 1.08613e-011
429
root  -2.53856 39.9665 15.199 -174.896 3.80513 -179.591
RightUpLeg  -17.7556 5.73899 -7.65422
RightLeg  14.3611 3.73137 0.166563
RightFoot  0.901285 -0.791568 7.42415
RightToes  -5.8209e-011 0 -3.6325e-017
Spine  28.9456 0.722793 3.82885
Spine1  18.9718 2.71794 -1.87129
HEad  13.7463 -9.43064 -1.00028
LeftShoulder1  7.43902 -17.0705 -30.0899
LeftArm  7.30837 -34.3911 -66.2318
LeftForeArm  -2.17862 -2.86953 -12.8998
LeftHand  -0.246645 0.021 5.37786
RightShoulder  8.00477 16.5085 34.0099
RightArm  -3.11835 41.8954 49.7622
RightForeArm  4.21291 3.39669 11.5293
RightHand  -0.24729 -0.0210522 -5.37781
LeftUpLeg  -14.7166 11.182 5.9512
LeftLeg  11.2955 0.930542 -2.99741
LeftFoot  0.324381 0.397575 -3.91148
LeftToes  -7.45818e-011 -3.37383e-011 1.08613e-011
430
root  -2.51831 39.9816 15.1774 -174.757 3.86032 -179.578
RightUpLeg  -17.78 6.40455 -8.02984
RightLeg  13.902 2.98739 -0.340658
RightFoot  0.919715 -0.67533 6.346
RightToes  -5.8209e-011 0 -3.6325e-017
Spine  28.9961 0.640628 3.65316
Spine1  18.9144 2.50272 -1.66161
HEad  13.0277 -9.04132 -1.28672
LeftShoulder1  7.45046 -17.0595 -30.1662
LeftArm  6.79806 -34.4176 -66.217
LeftForeArm  -2.8809 -2.49029 -12.7896
LeftHand  -0.246645 0.021 5.37786
RightShoulder  7.96303 16.5023 33.8152
RightArm  -3.16136 41.8524 50.3701
RightForeArm  3.48067 3.24586 11.4545
RightHand  -0.24729 -0.0210522 -5.37781
LeftUpLeg  -14.6859 11.1067 6.048
LeftLeg  11.0377 1.10405 -3.09288
LeftFoot  0.49341 0.400934 -3.89731
LeftToes  -7.45818e-011 -3.37383e-011 1.08613e-011
431
root  -2.43184 39.9879 15.1355 -174.585 3.83847 -179.691
RightUpLeg  -17.5517 5.86883 -8.13658
RightLeg  12.8361 3.26177 -0.870954
RightFoot  1.6597 -0.676345 6.02169
RightToes  -5.8209e-011 0 -3.6325e-017
Spine  28.915 0.59119 3.58046
Spine1  18.8826 2.39671 -1.58172
HEad  12.4261 -8.87796 -1.46748
LeftShoulder1  7.49072 -17.0623 -30.3599
LeftArm  6.40099 -34.3632 -66.0742
LeftForeArm  -4.02609 -2.4943 -12.7138
LeftHand  -0.246645 0.021 5.37786
RightShoulder  7.94954 16.5212 33.7106
RightArm  -3.37325 41.53 50.6351
RightForeArm  2.89668 3.37391 11.3506
RightHand  -0.24729 -0.0210522 -5.37781
LeftUpLeg  -14.6592 10.93 6.11613
LeftLeg  10.7431 1.30853 -3.17062
LeftFoot  0.631147 0.410369 -3.95014
LeftToes  -7.45818e-011 -3.37383e-011 1.08613e-011
432
root  -2.28027 39.9665 15.0834 -174.49 3.72968 179.992
RightUpLeg  -17.1066 4.53313 -8.19546
RightLeg  11.7216 4.99155 -1.02947
RightFoot  2.09843 -0.792741 6.84704
RightToes  -5.8209e-011 0 -3.6325e-017
Spine  28.8856 0.541818 3.55887
Spine1  18.7661 2.40834 -1.78092
HEad  12.0118 -8.86054 -1.56245
LeftShoulder1  7.53311 -17.098 -30.504
LeftArm  5.7956 -34.2375 -65.9459
LeftForeArm  -5.73475 -2.66562 -12.5772
LeftHand  -0.246645 0.021 5.37786
RightShoulder  7.98394 16.5521 33.8199
RightArm  -3.75751 41.0028 50.5871
RightForeArm  1.89666 3.57904 11.2255
RightHand  -0.24729 -0.0210522 -5.37781
LeftUpLeg  -14.6462 10.6941 6.05659
LeftLeg  10.6174 1.43739 -3.2
LeftFoot  0.692245 0.428514 -4.10558
LeftToes  -7.45818e-011 -3.37383e-011 1.08613e-011
433
root  -2.0543 39.94 15.0307 -174.444 3.39754 179.701
RightUpLeg  -16.4498 2.7071 -7.9393
RightLeg  10.7412 7.25585 -1.00249
RightFoot  1.63367 -0.850455 7.56405
RightToes  -5.8209e-011 0 -3.6325e-017
Spine  28.9139 0.42433 3.75253
Spine1  18.5734 2.41061 -2.03645
HEad  11.73 -8.8255 -1.57312
LeftShoulder1  7.53689 -17.1179 -30.4865
LeftArm  4.89576 -34.0996 -66.0495
LeftForeArm  -7.70398 -2.55325 -12.2943
LeftHand  -0.246645 0.021 5.37786
RightShoulder  8.04611 16.5771 34.0777
RightArm  -4.19166 40.4615 50.4813
RightForeArm  0.447465 3.64515 11.0977
RightHand  -0.24729 -0.0210522 -5.37781
LeftUpLeg  -14.6374 10.5546 6.04922
LeftLeg  10.5227 1.21196 -3.14798
LeftFoot  0.810305 0.466925 -4.43222
LeftToes  -7.45818e-011 -3.37383e-011 1.08613e-011
434
root  -1.75213 39.9429 14.9842 -174.366 2.83202 179.631
RightUpLeg  -15.7558 0.670292 -7.15561
RightLeg  9.84772 8.90017 -1.08491
RightFoot  0.925259 -0.760552 7.1246
RightToes  -5.8209e-011 0 -3.6325e-017
Spine  28.8999 0.254707 4.31511
Spine1  18.3897 2.3747 -2.13099
HEad  11.5397 -8.73724 -1.4878
LeftShoulder1  7.4984 -17.0755 -30.3738
LeftArm  3.98994 -34.0489 -66.415
LeftForeArm  -9.49847 -1.91832 -11.9227
LeftHand  -0.246645 0.021 5.37786
RightShoulder  8.10272 16.6088 34.2936
RightArm  -4.7275 39.9622 50.4514
RightForeArm  -0.585604 3.56797 10.9101
RightHand  -0.24729 -0.0210522 -5.37781
LeftUpLeg  -14.603 10.5252 6.26337
LeftLeg  10.1943 0.624339 -2.96667
LeftFoot  1.09986 0.521739 -4.8469
LeftToes  -7.45818e-011 -3.37383e-011 1.08613e-011
435
root  -1.39473 39.9678 14.9493 -174.281 2.2332 179.703
RightUpLeg  -15.3388 -0.786276 -6.21687
RightLeg  9.329 9.41016 -1.18775
RightFoot  0.675875 -0.63654 6.08793
RightToes  -5.8209e-011 0 -3.6325e-017
Spine  28.8862 0.0923243 5.18918
Spine1  18.204 2.41781 -2.21793
HEad  11.4524 -8.69304 -1.36262
LeftShoulder1  7.44925 -16.9984 -30.2708
LeftArm  3.44922 -34.0232 -66.8831
LeftForeArm  -11.1923 -1.15166 -11.6933
LeftHand  -0.246645 0.021 5.37786
RightShoulder  8.13277 16.6652 34.3287
RightArm  -5.34209 39.4369 50.518
RightForeArm  -1.15469 3.49737 10.6716
RightHand  -0.24729 -0.0210522 -5.37781
LeftUpLeg  -14.5455 10.5558 6.64327
LeftLeg  9.72224 -0.0818927 -2.6665
LeftFoot  1.50068 0.581034 -5.24244
LeftToes  -7.45818e-011 -3.37383e-011 1.08613e-011
436
root  -1.0201 39.9717 14.9288 -174.25 1.77077 179.819
RightUpLeg  -15.3699 -1.13525 -5.48301
RightLeg  9.61076 9.11791 -1.12507
RightFoot  0.621509 -0.568401 5.46072
RightToes  -5.8209e-011 0 -3.6325e-017
Spine  28.9857 -0.0835197 6.27721
Spine1  17.8976 2.59232 -2.5488
HEad  11.4679 -8.73302 -1.29732
LeftShoulder1  7.40056 -16.9324 -30.1487
LeftArm  3.46398 -33.7707 -67.3694
LeftForeArm  -12.0651 -0.913669 -11.6995
LeftHand  -0.246645 0.021 5.37786
RightShoulder  8.15019 16.7287 34.2877
RightArm  -5.70464 38.9036 50.6521
RightForeArm  -2.08437 3.5625 10.547
RightHand  -0.24729 -0.0210522 -5.37781
LeftUpLeg  -14.5909 10.7615 7.09502
LeftLeg  9.56543 -0.851269 -2.35385
LeftFoot  1.8087 0.649131 -5.7254
LeftToes  -7.45818e-011 -3.37383e-011 1.08613e-011
